<svg width="61" height="40" fill="none" xmlns="http://www.w3.org/2000/svg"><path d="M44.726 0c2.694 0 5.239.65 7.634 1.951 2.395 1.301 4.34 3.171 5.837 5.61 1.438 2.439 2.156 5.312 2.156 8.618s-.898 6.531-2.694 9.675c-.6 1.138-1.677 2.601-3.234 4.39-1.616 1.788-3.113 3.333-4.49 4.634L44.277 40l-4.042-6.016a30.026 30.026 0 0 0 7.455-5.854c2.155-2.276 3.233-4.363 3.233-6.26 0-.976-.24-1.762-.719-2.358-2.095 1.355-4.43 2.033-7.005 2.033-1.856 0-3.622-.515-5.299-1.545-1.736-.976-3.113-2.276-4.131-3.902-1.078-1.572-1.617-3.198-1.617-4.878 0-1.898.629-3.713 1.886-5.448 1.198-1.734 2.785-3.143 4.76-4.227C40.714.515 42.69 0 44.726 0ZM12.484 0c2.694 0 5.239.65 7.634 1.951 2.395 1.301 4.34 3.17 5.837 5.61 1.437 2.439 2.156 5.312 2.156 8.618 0 2.33-.33 4.417-.988 6.26-.659 1.897-1.796 3.875-3.413 5.935-1.557 1.951-3.024 3.577-4.4 4.878-1.378 1.355-3.773 3.604-7.185 6.748l-4.042-6.016a30.026 30.026 0 0 0 7.454-5.854c2.156-2.276 3.233-4.363 3.233-6.26 0-.976-.239-1.762-.718-2.358-2.096 1.355-4.43 2.033-7.005 2.033-1.856 0-3.623-.515-5.3-1.545-1.735-.976-3.113-2.276-4.13-3.902C.539 14.526 0 12.9 0 11.22c0-1.898.599-3.713 1.796-5.448C2.994 4.038 4.58 2.63 6.556 1.545 8.472.515 10.448 0 12.484 0Z" fill="#E1E1E1"/></svg>