<svg aria-hidden="true" style="width:0;height:0;position:absolute;overflow:hidden" xmlns="http://www.w3.org/2000/svg"><defs><symbol id="icon-arrow" viewBox="0 0 26 32"><path d="M2.798 1.055a3.2 3.2 0 0 1 4.52-.229l14.169 12.8a3.199 3.199 0 0 1 0 4.75l-14.169 12.8a3.2 3.2 0 0 1-4.291-4.749l11.54-10.425L3.027 5.577a3.2 3.2 0 0 1-.229-4.52z"/></symbol><symbol id="arrow-right" viewBox="0 0 32 32"><path d="m19.414 27.414 10-10a2 2 0 0 0 0-2.828l-10-10a2 2 0 1 0-2.828 2.828L23.172 14H4a2 2 0 1 0 0 4h19.172l-6.586 6.586c-.39.39-.586.902-.586 1.414s.195 1.024.586 1.414a2 2 0 0 0 2.828 0z"/></symbol><symbol id="close" viewBox="0 0 32 32"><path stroke="#fff" style="stroke:var(--color2,#fff)" stroke-width="2" d="m2.519 2 26.963 28M2 29.481 30 2.518"/></symbol><symbol id="burger" viewBox="0 0 46 32"><path d="M0 2.286h45.714M0 16h45.714M0 29.714h45.714"/></symbol><symbol id="slider-birds" viewBox="0 0 49 32"><path fill="#e1e1e1" style="fill:var(--color1,#e1e1e1)" d="M35.781 0c2.155 0 4.191.52 6.107 1.561s3.472 2.537 4.67 4.488c1.15 1.951 1.725 4.25 1.725 6.894s-.718 5.225-2.155 7.74c-.48.91-1.342 2.081-2.587 3.512a66.3 66.3 0 0 1-3.592 3.707L35.423 32l-3.234-4.813a24.187 24.187 0 0 0 5.95-4.668l.014-.015c1.724-1.821 2.586-3.49 2.586-5.008 0-.781-.192-1.41-.575-1.886-1.676 1.084-3.544 1.626-5.604 1.626-1.485 0-2.898-.412-4.239-1.236-1.389-.781-2.49-1.821-3.305-3.122-.862-1.258-1.294-2.558-1.294-3.902 0-1.518.503-2.97 1.509-4.358.958-1.387 2.228-2.514 3.808-3.382C32.572.412 34.153 0 35.781 0zM9.987 0c2.155 0 4.191.52 6.107 1.561s3.472 2.536 4.67 4.488c1.15 1.951 1.725 4.25 1.725 6.894 0 1.864-.264 3.534-.79 5.008-.527 1.518-1.437 3.1-2.73 4.748-1.246 1.561-2.419 2.862-3.52 3.902-1.102 1.084-3.018 2.883-5.748 5.398l-3.234-4.813a24.182 24.182 0 0 0 5.949-4.668l.014-.015c1.725-1.821 2.586-3.49 2.586-5.008 0-.781-.191-1.41-.574-1.886-1.677 1.084-3.544 1.626-5.604 1.626-1.485 0-2.898-.412-4.24-1.236-1.388-.781-2.49-1.821-3.304-3.122C.432 11.619 0 10.319 0 8.975c0-1.518.479-2.97 1.437-4.358s2.227-2.514 3.808-3.382C6.778.411 8.359-.001 9.987-.001z"/></symbol><symbol id="facebook" viewBox="0 0 16 32"><path fill="#fff" style="fill:var(--color1,#fff)" d="M14.266 15.97H10.09v15.39H3.762V15.968H.754V10.56h3.008V7.062C3.762 4.558 4.946.64 10.146.64l4.688.019v5.25h-3.402c-.557 0-1.342.282-1.342 1.475v3.184h4.73l-.554 5.4z"/></symbol><symbol id="telegram" viewBox="0 0 40 32"><path fill="#fff" style="fill:var(--color1,#fff)" d="m16.206 20.75-.636 8.34c.908 0 1.302-.366 1.774-.802l4.26-3.8 8.83 6.034c1.62.84 2.76.398 3.196-1.39l5.796-25.346h.002c.514-2.236-.866-3.108-2.444-2.56L2.92 13.398c-2.324.84-2.29 2.052-.396 2.6l8.71 2.528 20.23-11.814c.952-.588 1.816-.264 1.104.326L16.206 20.75z"/></symbol><symbol id="icon-github" viewBox="0 0 32 32"><path fill="#fff" style="fill:var(--color1,#fff)" d="M16 .941C7.728.941.941 7.73.941 16c0 7.059 4.954 13.47 11.53 15.059v-4.982c-.651.144-1.251.147-1.915-.048-.89-.264-1.613-.856-2.149-1.76-.342-.576-.949-1.203-1.581-1.157l-.155-1.758c1.368-.117 2.55.834 3.253 2.014.312.525.672.832 1.133.968.445.131.923.069 1.482-.128.139-1.117.651-1.536 1.037-2.123-3.922-.584-5.485-2.667-6.106-4.309-.822-2.181-.381-4.906 1.072-6.627.029-.032.08-.122.061-.182-.667-2.014.144-3.68.176-3.856.768.227.893-.229 3.341 1.258l.422.254c.176.106.122.045.299.032a12.465 12.465 0 0 1 3.15-.445h.01c1.147.018 2.247.183 3.294.478l-.09-.022.138.014c-.013-.002.037-.01.12-.059 3.056-1.851 2.947-1.246 3.766-1.512.03.176.832 1.869.171 3.856-.088.275 2.651 2.784 1.133 6.811-.621 1.643-2.184 3.723-6.106 4.309.502.766 1.107 1.174 1.104 2.755v6.219c6.576-1.589 11.53-8 11.53-15.059 0-8.272-6.787-15.059-15.059-15.059z"/></symbol><symbol id="check" viewBox="0 0 42 32"><path d="m6.263 15.205-.22-.21-3.307 3.132 11.651 11.114L38.864 5.89l-3.285-3.134-21.192 20.197-8.124-7.75z"/></symbol><symbol id="arrow-up" viewBox="0 0 32 32"><path d="m27.414 12.586-10-10a2 2 0 0 0-2.828 0l-10 10a2 2 0 1 0 2.828 2.828L14 8.828V28a2 2 0 1 0 4 0V8.828l6.586 6.586c.39.39.902.586 1.414.586s1.024-.195 1.414-.586a2 2 0 0 0 0-2.828z"/></symbol></defs></svg>